#N canvas 616 482 361 423 10;
#N canvas 1120 22 132 842 instances 0;
#X obj 25 25 a.row 0 24;
#X obj 25 50 a.row 1 24;
#X obj 25 75 a.row 2 24;
#X obj 25 100 a.row 3 24;
#X obj 25 125 a.row 4 24;
#X obj 25 150 a.row 5 24;
#X obj 25 175 a.row 6 24;
#X obj 25 200 a.row 7 24;
#X obj 25 225 a.row 8 24;
#X obj 25 250 a.row 9 24;
#X obj 25 275 a.row 10 24;
#X obj 25 300 a.row 11 24;
#X obj 25 325 a.row 12 24;
#X obj 25 350 a.row 13 24;
#X obj 25 375 a.row 14 24;
#X obj 25 400 a.row 15 24;
#X obj 25 425 a.row 16 24;
#X obj 25 450 a.row 17 24;
#X obj 25 475 a.row 18 24;
#X obj 25 500 a.row 19 24;
#X obj 25 525 a.row 20 24;
#X obj 25 550 a.row 21 24;
#X obj 25 575 a.row 22 24;
#X obj 25 600 a.row 23 24;
#X obj 25 625 a.row 24 24;
#X obj 25 650 a.row 25 24;
#X obj 25 675 a.row 26 24;
#X obj 25 700 a.row 27 24;
#X obj 25 725 a.row 28 24;
#X obj 25 750 a.row 29 24;
#X obj 25 775 a.row 30 24;
#X obj 25 800 a.row 31 24;
#X obj 25 825 a.row 32 24;
#X obj 25 850 a.row 33 24;
#X obj 25 875 a.row 34 24;
#X obj 25 900 a.row 35 24;
#X obj 25 925 a.row 36 24;
#X obj 25 950 a.row 37 24;
#X obj 25 975 a.row 38 24;
#X obj 25 1000 a.row 39 24;
#X obj 25 1025 a.row 40 24;
#X obj 25 1050 a.row 41 24;
#X obj 25 1075 a.row 42 24;
#X obj 25 1100 a.row 43 24;
#X obj 25 1125 a.row 44 24;
#X obj 25 1150 a.row 45 24;
#X obj 25 1175 a.row 46 24;
#X obj 25 1200 a.row 47 24;
#X obj 25 1225 a.row 48 24;
#X obj 25 1250 a.row 49 24;
#X obj 25 1275 a.row 50 24;
#X obj 25 1300 a.row 51 24;
#X obj 25 1325 a.row 52 24;
#X obj 25 1350 a.row 53 24;
#X obj 25 1375 a.row 54 24;
#X obj 25 1400 a.row 55 24;
#X obj 25 1425 a.row 56 24;
#X obj 25 1450 a.row 57 24;
#X obj 25 1475 a.row 58 24;
#X obj 25 1500 a.row 59 24;
#X obj 25 1525 a.row 60 24;
#X obj 25 1550 a.row 61 24;
#X obj 25 1575 a.row 62 24;
#X obj 25 1600 a.row 63 24;
#X obj 25 1625 a.row 64 24;
#X obj 25 1650 a.row 65 24;
#X obj 25 1675 a.row 66 24;
#X obj 25 1700 a.row 67 24;
#X obj 25 1725 a.row 68 24;
#X obj 25 1750 a.row 69 24;
#X obj 25 1775 a.row 70 24;
#X obj 25 1800 a.row 71 24;
#X obj 25 1825 a.row 72 24;
#X obj 25 1850 a.row 73 24;
#X obj 25 1875 a.row 74 24;
#X obj 25 1900 a.row 75 24;
#X obj 25 1925 a.row 76 24;
#X obj 25 1950 a.row 77 24;
#X obj 25 1975 a.row 78 24;
#X obj 25 2000 a.row 79 24;
#X obj 25 2025 a.row 80 24;
#X obj 25 2050 a.row 81 24;
#X obj 25 2075 a.row 82 24;
#X obj 25 2100 a.row 83 24;
#X obj 25 2125 a.row 84 24;
#X obj 25 2150 a.row 85 24;
#X obj 25 2175 a.row 86 24;
#X obj 25 2200 a.row 87 24;
#X obj 25 2225 a.row 88 24;
#X obj 25 2250 a.row 89 24;
#X obj 25 2275 a.row 90 24;
#X obj 25 2300 a.row 91 24;
#X obj 25 2325 a.row 92 24;
#X obj 25 2350 a.row 93 24;
#X obj 25 2375 a.row 94 24;
#X obj 25 2400 a.row 95 24;
#X obj 25 2425 a.row 96 24;
#X obj 25 2450 a.row 97 24;
#X obj 25 2475 a.row 98 24;
#X obj 25 2500 a.row 99 24;
#X obj 25 2525 a.row 100 24;
#X obj 25 2550 a.row 101 24;
#X obj 25 2575 a.row 102 24;
#X obj 25 2600 a.row 103 24;
#X obj 25 2625 a.row 104 24;
#X obj 25 2650 a.row 105 24;
#X obj 25 2675 a.row 106 24;
#X obj 25 2700 a.row 107 24;
#X obj 25 2725 a.row 108 24;
#X obj 25 2750 a.row 109 24;
#X obj 25 2775 a.row 110 24;
#X obj 25 2800 a.row 111 24;
#X obj 25 2825 a.row 112 24;
#X obj 25 2850 a.row 113 24;
#X obj 25 2875 a.row 114 24;
#X obj 25 2900 a.row 115 24;
#X obj 25 2925 a.row 116 24;
#X obj 25 2950 a.row 117 24;
#X obj 25 2975 a.row 118 24;
#X obj 25 3000 a.row 119 24;
#X obj 25 3025 a.row 120 24;
#X obj 25 3050 a.row 121 24;
#X obj 25 3075 a.row 122 24;
#X obj 25 3100 a.row 123 24;
#X obj 25 3125 a.row 124 24;
#X obj 25 3150 a.row 125 24;
#X obj 25 3175 a.row 126 24;
#X obj 25 3200 a.row 127 24;
#X obj 25 3225 a.row 128 24;
#X obj 25 3250 a.row 129 24;
#X obj 25 3275 a.row 130 24;
#X obj 25 3300 a.row 131 24;
#X obj 25 3325 a.row 132 24;
#X obj 25 3350 a.row 133 24;
#X obj 25 3375 a.row 134 24;
#X obj 25 3400 a.row 135 24;
#X obj 25 3425 a.row 136 24;
#X obj 25 3450 a.row 137 24;
#X obj 25 3475 a.row 138 24;
#X obj 25 3500 a.row 139 24;
#X obj 25 3525 a.row 140 24;
#X obj 25 3550 a.row 141 24;
#X obj 25 3575 a.row 142 24;
#X obj 25 3600 a.row 143 24;
#X obj 25 3625 a.row 144 24;
#X obj 25 3650 a.row 145 24;
#X obj 25 3675 a.row 146 24;
#X obj 25 3700 a.row 147 24;
#X obj 25 3725 a.row 148 24;
#X obj 25 3750 a.row 149 24;
#X obj 25 3775 a.row 150 24;
#X obj 25 3800 a.row 151 24;
#X obj 25 3825 a.row 152 24;
#X obj 25 3850 a.row 153 24;
#X obj 25 3875 a.row 154 24;
#X obj 25 3900 a.row 155 24;
#X obj 25 3925 a.row 156 24;
#X obj 25 3950 a.row 157 24;
#X obj 25 3975 a.row 158 24;
#X obj 25 4000 a.row 159 24;
#X obj 25 4025 a.row 160 24;
#X obj 25 4050 a.row 161 24;
#X obj 25 4075 a.row 162 24;
#X obj 25 4100 a.row 163 24;
#X obj 25 4125 a.row 164 24;
#X obj 25 4150 a.row 165 24;
#X obj 25 4175 a.row 166 24;
#X obj 25 4200 a.row 167 24;
#X obj 25 4225 a.row 168 24;
#X obj 25 4250 a.row 169 24;
#X obj 25 4275 a.row 170 24;
#X obj 25 4300 a.row 171 24;
#X obj 25 4325 a.row 172 24;
#X obj 25 4350 a.row 173 24;
#X obj 25 4375 a.row 174 24;
#X obj 25 4400 a.row 175 24;
#X obj 25 4425 a.row 176 24;
#X obj 25 4450 a.row 177 24;
#X obj 25 4475 a.row 178 24;
#X obj 25 4500 a.row 179 24;
#X obj 25 4525 a.row 180 24;
#X obj 25 4550 a.row 181 24;
#X obj 25 4575 a.row 182 24;
#X obj 25 4600 a.row 183 24;
#X obj 25 4625 a.row 184 24;
#X obj 25 4650 a.row 185 24;
#X obj 25 4675 a.row 186 24;
#X obj 25 4700 a.row 187 24;
#X obj 25 4725 a.row 188 24;
#X obj 25 4750 a.row 189 24;
#X obj 25 4775 a.row 190 24;
#X obj 25 4800 a.row 191 24;
#X obj 25 4825 a.row 192 24;
#X obj 25 4850 a.row 193 24;
#X obj 25 4875 a.row 194 24;
#X obj 25 4900 a.row 195 24;
#X obj 25 4925 a.row 196 24;
#X obj 25 4950 a.row 197 24;
#X obj 25 4975 a.row 198 24;
#X obj 25 5000 a.row 199 24;
#X obj 25 5025 a.row 200 24;
#X obj 25 5050 a.row 201 24;
#X obj 25 5075 a.row 202 24;
#X obj 25 5100 a.row 203 24;
#X obj 25 5125 a.row 204 24;
#X obj 25 5150 a.row 205 24;
#X obj 25 5175 a.row 206 24;
#X obj 25 5200 a.row 207 24;
#X obj 25 5225 a.row 208 24;
#X obj 25 5250 a.row 209 24;
#X obj 25 5275 a.row 210 24;
#X obj 25 5300 a.row 211 24;
#X obj 25 5325 a.row 212 24;
#X obj 25 5350 a.row 213 24;
#X obj 25 5375 a.row 214 24;
#X obj 25 5400 a.row 215 24;
#X obj 25 5425 a.row 216 24;
#X obj 25 5450 a.row 217 24;
#X obj 25 5475 a.row 218 24;
#X obj 25 5500 a.row 219 24;
#X obj 25 5525 a.row 220 24;
#X obj 25 5550 a.row 221 24;
#X obj 25 5575 a.row 222 24;
#X obj 25 5600 a.row 223 24;
#X obj 25 5625 a.row 224 24;
#X obj 25 5650 a.row 225 24;
#X obj 25 5675 a.row 226 24;
#X obj 25 5700 a.row 227 24;
#X obj 25 5725 a.row 228 24;
#X obj 25 5750 a.row 229 24;
#X obj 25 5775 a.row 230 24;
#X obj 25 5800 a.row 231 24;
#X obj 25 5825 a.row 232 24;
#X obj 25 5850 a.row 233 24;
#X obj 25 5875 a.row 234 24;
#X obj 25 5900 a.row 235 24;
#X obj 25 5925 a.row 236 24;
#X obj 25 5950 a.row 237 24;
#X obj 25 5975 a.row 238 24;
#X obj 25 6000 a.row 239 24;
#X obj 25 6025 a.row 240 24;
#X obj 25 6050 a.row 241 24;
#X obj 25 6075 a.row 242 24;
#X obj 25 6100 a.row 243 24;
#X obj 25 6125 a.row 244 24;
#X obj 25 6150 a.row 245 24;
#X obj 25 6175 a.row 246 24;
#X obj 25 6200 a.row 247 24;
#X obj 25 6225 a.row 248 24;
#X obj 25 6250 a.row 249 24;
#X obj 25 6275 a.row 250 24;
#X obj 25 6300 a.row 251 24;
#X obj 25 6325 a.row 252 24;
#X obj 25 6350 a.row 253 24;
#X obj 25 6375 a.row 254 24;
#X obj 25 6400 a.row 255 24;
#X obj 25 6425 a.row 256 24;
#X obj 25 6450 a.row 257 24;
#X obj 25 6475 a.row 258 24;
#X obj 25 6500 a.row 259 24;
#X obj 25 6525 a.row 260 24;
#X obj 25 6550 a.row 261 24;
#X obj 25 6575 a.row 262 24;
#X obj 25 6600 a.row 263 24;
#X obj 25 6625 a.row 264 24;
#X obj 25 6650 a.row 265 24;
#X obj 25 6675 a.row 266 24;
#X obj 25 6700 a.row 267 24;
#X obj 25 6725 a.row 268 24;
#X obj 25 6750 a.row 269 24;
#X obj 25 6775 a.row 270 24;
#X obj 25 6800 a.row 271 24;
#X obj 25 6825 a.row 272 24;
#X obj 25 6850 a.row 273 24;
#X obj 25 6875 a.row 274 24;
#X obj 25 6900 a.row 275 24;
#X obj 25 6925 a.row 276 24;
#X obj 25 6950 a.row 277 24;
#X obj 25 6975 a.row 278 24;
#X obj 25 7000 a.row 279 24;
#X obj 25 7025 a.row 280 24;
#X obj 25 7050 a.row 281 24;
#X obj 25 7075 a.row 282 24;
#X obj 25 7100 a.row 283 24;
#X obj 25 7125 a.row 284 24;
#X obj 25 7150 a.row 285 24;
#X obj 25 7175 a.row 286 24;
#X obj 25 7200 a.row 287 24;
#X obj 25 7225 a.row 288 24;
#X obj 25 7250 a.row 289 24;
#X obj 25 7275 a.row 290 24;
#X obj 25 7300 a.row 291 24;
#X obj 25 7325 a.row 292 24;
#X obj 25 7350 a.row 293 24;
#X obj 25 7375 a.row 294 24;
#X obj 25 7400 a.row 295 24;
#X obj 25 7425 a.row 296 24;
#X obj 25 7450 a.row 297 24;
#X obj 25 7475 a.row 298 24;
#X obj 25 7500 a.row 299 24;
#X obj 25 7525 a.row 300 24;
#X obj 25 7550 a.row 301 24;
#X obj 25 7575 a.row 302 24;
#X obj 25 7600 a.row 303 24;
#X obj 25 7625 a.row 304 24;
#X obj 25 7650 a.row 305 24;
#X obj 25 7675 a.row 306 24;
#X obj 25 7700 a.row 307 24;
#X obj 25 7725 a.row 308 24;
#X obj 25 7750 a.row 309 24;
#X obj 25 7775 a.row 310 24;
#X obj 25 7800 a.row 311 24;
#X obj 25 7825 a.row 312 24;
#X obj 25 7850 a.row 313 24;
#X obj 25 7875 a.row 314 24;
#X obj 25 7900 a.row 315 24;
#X obj 25 7925 a.row 316 24;
#X obj 25 7950 a.row 317 24;
#X obj 25 7975 a.row 318 24;
#X obj 25 8000 a.row 319 24;
#X obj 25 8025 a.row 320 24;
#X obj 25 8050 a.row 321 24;
#X obj 25 8075 a.row 322 24;
#X obj 25 8100 a.row 323 24;
#X obj 25 8125 a.row 324 24;
#X obj 25 8150 a.row 325 24;
#X obj 25 8175 a.row 326 24;
#X obj 25 8200 a.row 327 24;
#X obj 25 8225 a.row 328 24;
#X obj 25 8250 a.row 329 24;
#X obj 25 8275 a.row 330 24;
#X obj 25 8300 a.row 331 24;
#X obj 25 8325 a.row 332 24;
#X obj 25 8350 a.row 333 24;
#X obj 25 8375 a.row 334 24;
#X obj 25 8400 a.row 335 24;
#X obj 25 8425 a.row 336 24;
#X obj 25 8450 a.row 337 24;
#X obj 25 8475 a.row 338 24;
#X obj 25 8500 a.row 339 24;
#X obj 25 8525 a.row 340 24;
#X obj 25 8550 a.row 341 24;
#X obj 25 8575 a.row 342 24;
#X obj 25 8600 a.row 343 24;
#X obj 25 8625 a.row 344 24;
#X obj 25 8650 a.row 345 24;
#X obj 25 8675 a.row 346 24;
#X obj 25 8700 a.row 347 24;
#X obj 25 8725 a.row 348 24;
#X obj 25 8750 a.row 349 24;
#X obj 25 8775 a.row 350 24;
#X obj 25 8800 a.row 351 24;
#X obj 25 8825 a.row 352 24;
#X obj 25 8850 a.row 353 24;
#X obj 25 8875 a.row 354 24;
#X obj 25 8900 a.row 355 24;
#X obj 25 8925 a.row 356 24;
#X obj 25 8950 a.row 357 24;
#X obj 25 8975 a.row 358 24;
#X obj 25 9000 a.row 359 24;
#X obj 25 9025 a.row 360 24;
#X obj 25 9050 a.row 361 24;
#X obj 25 9075 a.row 362 24;
#X obj 25 9100 a.row 363 24;
#X obj 25 9125 a.row 364 24;
#X obj 25 9150 a.row 365 24;
#X obj 25 9175 a.row 366 24;
#X obj 25 9200 a.row 367 24;
#X obj 25 9225 a.row 368 24;
#X obj 25 9250 a.row 369 24;
#X obj 25 9275 a.row 370 24;
#X obj 25 9300 a.row 371 24;
#X obj 25 9325 a.row 372 24;
#X obj 25 9350 a.row 373 24;
#X obj 25 9375 a.row 374 24;
#X obj 25 9400 a.row 375 24;
#X obj 25 9425 a.row 376 24;
#X obj 25 9450 a.row 377 24;
#X obj 25 9475 a.row 378 24;
#X obj 25 9500 a.row 379 24;
#X obj 25 9525 a.row 380 24;
#X obj 25 9550 a.row 381 24;
#X obj 25 9575 a.row 382 24;
#X obj 25 9600 a.row 383 24;
#X obj 25 9625 a.row 384 24;
#X obj 25 9650 a.row 385 24;
#X obj 25 9675 a.row 386 24;
#X obj 25 9700 a.row 387 24;
#X obj 25 9725 a.row 388 24;
#X obj 25 9750 a.row 389 24;
#X obj 25 9775 a.row 390 24;
#X obj 25 9800 a.row 391 24;
#X obj 25 9825 a.row 392 24;
#X obj 25 9850 a.row 393 24;
#X obj 25 9875 a.row 394 24;
#X obj 25 9900 a.row 395 24;
#X obj 25 9925 a.row 396 24;
#X obj 25 9950 a.row 397 24;
#X obj 25 9975 a.row 398 24;
#X obj 25 10000 a.row 399 24;
#X obj 25 10025 a.row 400 24;
#X obj 25 10050 a.row 401 24;
#X obj 25 10075 a.row 402 24;
#X obj 25 10100 a.row 403 24;
#X obj 25 10125 a.row 404 24;
#X obj 25 10150 a.row 405 24;
#X obj 25 10175 a.row 406 24;
#X obj 25 10200 a.row 407 24;
#X obj 25 10225 a.row 408 24;
#X obj 25 10250 a.row 409 24;
#X obj 25 10275 a.row 410 24;
#X obj 25 10300 a.row 411 24;
#X obj 25 10325 a.row 412 24;
#X obj 25 10350 a.row 413 24;
#X obj 25 10375 a.row 414 24;
#X obj 25 10400 a.row 415 24;
#X obj 25 10425 a.row 416 24;
#X obj 25 10450 a.row 417 24;
#X obj 25 10475 a.row 418 24;
#X obj 25 10500 a.row 419 24;
#X obj 25 10525 a.row 420 24;
#X obj 25 10550 a.row 421 24;
#X obj 25 10575 a.row 422 24;
#X obj 25 10600 a.row 423 24;
#X obj 25 10625 a.row 424 24;
#X obj 25 10650 a.row 425 24;
#X obj 25 10675 a.row 426 24;
#X obj 25 10700 a.row 427 24;
#X obj 25 10725 a.row 428 24;
#X obj 25 10750 a.row 429 24;
#X obj 25 10775 a.row 430 24;
#X obj 25 10800 a.row 431 24;
#X obj 25 10825 a.row 432 24;
#X obj 25 10850 a.row 433 24;
#X obj 25 10875 a.row 434 24;
#X obj 25 10900 a.row 435 24;
#X obj 25 10925 a.row 436 24;
#X obj 25 10950 a.row 437 24;
#X obj 25 10975 a.row 438 24;
#X obj 25 11000 a.row 439 24;
#X obj 25 11025 a.row 440 24;
#X obj 25 11050 a.row 441 24;
#X obj 25 11075 a.row 442 24;
#X obj 25 11100 a.row 443 24;
#X obj 25 11125 a.row 444 24;
#X obj 25 11150 a.row 445 24;
#X obj 25 11175 a.row 446 24;
#X obj 25 11200 a.row 447 24;
#X obj 25 11225 a.row 448 24;
#X obj 25 11250 a.row 449 24;
#X obj 25 11275 a.row 450 24;
#X obj 25 11300 a.row 451 24;
#X obj 25 11325 a.row 452 24;
#X obj 25 11350 a.row 453 24;
#X obj 25 11375 a.row 454 24;
#X obj 25 11400 a.row 455 24;
#X obj 25 11425 a.row 456 24;
#X obj 25 11450 a.row 457 24;
#X obj 25 11475 a.row 458 24;
#X obj 25 11500 a.row 459 24;
#X obj 25 11525 a.row 460 24;
#X obj 25 11550 a.row 461 24;
#X obj 25 11575 a.row 462 24;
#X obj 25 11600 a.row 463 24;
#X obj 25 11625 a.row 464 24;
#X obj 25 11650 a.row 465 24;
#X obj 25 11675 a.row 466 24;
#X obj 25 11700 a.row 467 24;
#X obj 25 11725 a.row 468 24;
#X obj 25 11750 a.row 469 24;
#X obj 25 11775 a.row 470 24;
#X obj 25 11800 a.row 471 24;
#X obj 25 11825 a.row 472 24;
#X obj 25 11850 a.row 473 24;
#X obj 25 11875 a.row 474 24;
#X obj 25 11900 a.row 475 24;
#X obj 25 11925 a.row 476 24;
#X obj 25 11950 a.row 477 24;
#X obj 25 11975 a.row 478 24;
#X obj 25 12000 a.row 479 24;
#X obj 25 12025 a.row 480 24;
#X obj 25 12050 a.row 481 24;
#X obj 25 12075 a.row 482 24;
#X obj 25 12100 a.row 483 24;
#X obj 25 12125 a.row 484 24;
#X obj 25 12150 a.row 485 24;
#X obj 25 12175 a.row 486 24;
#X obj 25 12200 a.row 487 24;
#X obj 25 12225 a.row 488 24;
#X obj 25 12250 a.row 489 24;
#X obj 25 12275 a.row 490 24;
#X obj 25 12300 a.row 491 24;
#X obj 25 12325 a.row 492 24;
#X obj 25 12350 a.row 493 24;
#X obj 25 12375 a.row 494 24;
#X obj 25 12400 a.row 495 24;
#X obj 25 12425 a.row 496 24;
#X obj 25 12450 a.row 497 24;
#X obj 25 12475 a.row 498 24;
#X obj 25 12500 a.row 499 24;
#X obj 25 12525 a.row 500 24;
#X obj 25 12550 a.row 501 24;
#X obj 25 12575 a.row 502 24;
#X obj 25 12600 a.row 503 24;
#X obj 25 12625 a.row 504 24;
#X obj 25 12650 a.row 505 24;
#X obj 25 12675 a.row 506 24;
#X obj 25 12700 a.row 507 24;
#X obj 25 12725 a.row 508 24;
#X obj 25 12750 a.row 509 24;
#X obj 25 12775 a.row 510 24;
#X obj 25 12800 a.row 511 24;
#X obj 25 12825 a.row 512 24;
#X obj 25 12850 a.row 513 24;
#X obj 25 12875 a.row 514 24;
#X obj 25 12900 a.row 515 24;
#X obj 25 12925 a.row 516 24;
#X obj 25 12950 a.row 517 24;
#X obj 25 12975 a.row 518 24;
#X obj 25 13000 a.row 519 24;
#X obj 25 13025 a.row 520 24;
#X obj 25 13050 a.row 521 24;
#X obj 25 13075 a.row 522 24;
#X obj 25 13100 a.row 523 24;
#X obj 25 13125 a.row 524 24;
#X obj 25 13150 a.row 525 24;
#X obj 25 13175 a.row 526 24;
#X obj 25 13200 a.row 527 24;
#X obj 25 13225 a.row 528 24;
#X obj 25 13250 a.row 529 24;
#X obj 25 13275 a.row 530 24;
#X obj 25 13300 a.row 531 24;
#X obj 25 13325 a.row 532 24;
#X obj 25 13350 a.row 533 24;
#X obj 25 13375 a.row 534 24;
#X obj 25 13400 a.row 535 24;
#X obj 25 13425 a.row 536 24;
#X obj 25 13450 a.row 537 24;
#X obj 25 13475 a.row 538 24;
#X obj 25 13500 a.row 539 24;
#X obj 25 13525 a.row 540 24;
#X obj 25 13550 a.row 541 24;
#X obj 25 13575 a.row 542 24;
#X obj 25 13600 a.row 543 24;
#X obj 25 13625 a.row 544 24;
#X obj 25 13650 a.row 545 24;
#X obj 25 13675 a.row 546 24;
#X obj 25 13700 a.row 547 24;
#X obj 25 13725 a.row 548 24;
#X obj 25 13750 a.row 549 24;
#X obj 25 13775 a.row 550 24;
#X obj 25 13800 a.row 551 24;
#X obj 25 13825 a.row 552 24;
#X obj 25 13850 a.row 553 24;
#X obj 25 13875 a.row 554 24;
#X obj 25 13900 a.row 555 24;
#X obj 25 13925 a.row 556 24;
#X obj 25 13950 a.row 557 24;
#X obj 25 13975 a.row 558 24;
#X obj 25 14000 a.row 559 24;
#X obj 25 14025 a.row 560 24;
#X obj 25 14050 a.row 561 24;
#X obj 25 14075 a.row 562 24;
#X obj 25 14100 a.row 563 24;
#X obj 25 14125 a.row 564 24;
#X obj 25 14150 a.row 565 24;
#X obj 25 14175 a.row 566 24;
#X obj 25 14200 a.row 567 24;
#X obj 25 14225 a.row 568 24;
#X obj 25 14250 a.row 569 24;
#X obj 25 14275 a.row 570 24;
#X obj 25 14300 a.row 571 24;
#X obj 25 14325 a.row 572 24;
#X obj 25 14350 a.row 573 24;
#X obj 25 14375 a.row 574 24;
#X obj 25 14400 a.row 575 24;
#X restore 136 382 pd instances;
#X obj 124 362 s pd-instances;
#X obj 58 113 until;
#X obj 84 163 + 1;
#X msg 124 113 clear;
#X obj 58 186 t f f;
#X obj 77 80 t f b b;
#X obj 85 209 * 25;
#X obj 85 229 + 25;
#X obj 77 56 inlet;
#X obj 62 274 symbol \$1;
#X obj 62 252 loadbang;
#X text 180 20 ARGUMENTS:;
#X text 180 65 2) number of instances;
#X text 180 45 1) name of the object;
#X msg 39 332 obj 25 \$3 \$2 \$1 \$4;
#X obj 133 273 inlet;
#X obj 39 306 pack f s f f;
#X obj 58 164 f 0;
#X msg 96 113 0;
#X connect 2 0 18 0;
#X connect 3 0 18 1;
#X connect 4 0 1 0;
#X connect 5 0 17 0;
#X connect 5 1 7 0;
#X connect 6 0 2 0;
#X connect 6 1 19 0;
#X connect 6 2 4 0;
#X connect 7 0 8 0;
#X connect 8 0 17 2;
#X connect 9 0 6 0;
#X connect 10 0 17 1;
#X connect 11 0 10 0;
#X connect 15 0 1 0;
#X connect 16 0 17 3;
#X connect 17 0 15 0;
#X connect 18 0 3 0;
#X connect 18 0 5 0;
#X connect 19 0 18 1;
