#N canvas 584 22 577 908 10;
#X obj -50 -342 +~;
#X obj 136 -383 *~ 0.98;
#X msg 21 -506 1000 \$1;
#X obj 21 -484 /;
#X obj 161 -187 *~ 1;
#X obj 182 -209 dbtorms;
#X obj 218 -332 t f f;
#X obj 189 -382 *;
#X obj 66 -559 t f f;
#X obj 375 -157 env~;
#X obj 375 -134 change;
#X obj 330 -17 s \$0-more;
#X obj 51 -874 r \$0-more;
#X obj 282 -647 moses 1;
#X obj 351 -625 sel 0;
#X obj 51 -850 t b b b b b b;
#X obj 202 -106 sqrt;
#X obj 181 -82 *~ 1;
#X obj 226 -82 *~ 1;
#X obj 247 -105 sqrt;
#X obj 247 -126 abs;
#X obj 247 -146 - 1;
#X obj 175 -673 / 100;
#X obj 175 -647 clip 0.001 0.999;
#X obj 351 -648 / 100;
#X obj -50 -319 delwrite~ d\$0 100;
#X obj 390 -65 s \$0-zero;
#X obj 189 -359 sig~;
#X obj 161 -309 vcf~ 100 1;
#X obj 182 -232 + 100;
#X obj 182 -255 * 10;
#X obj 245 -310 log;
#X obj 182 -277 / 2.30259;
#X obj 66 -580 mtof;
#X obj 375 -110 == 0;
#X obj 330 -215 r \$2-trigger;
#X obj 330 -192 sel \$1;
#X obj 181 -39 throw~ L;
#X obj 226 -59 throw~ R;
#X obj -50 -787 a.unitpulse;
#X obj 21 -461 delread~ d\$0 10;
#N canvas 701 352 194 208 trigger 0;
#X obj -190 179 outlet;
#X obj -163 132 switch~ 0;
#X obj -153 80 r \$0-zero;
#X obj -190 7 inlet;
#X obj -190 31 t b b;
#X msg -163 55 1;
#X obj -190 157 del 100;
#X msg -153 105 0;
#X connect 2 0 7 0;
#X connect 3 0 4 0;
#X connect 4 0 6 0;
#X connect 4 1 5 0;
#X connect 5 0 1 0;
#X connect 6 0 0 0;
#X connect 7 0 1 0;
#X restore 330 -39 pd trigger \, switch;
#X obj 390 -87 sel 1;
#X obj 330 -63 spigot 1;
#X obj 81 -622 r fundamental;
#X obj 66 -602 +;
#X obj -40 -736 random 3;
#X obj -40 -715 tabread chordType;
#X obj 66 -644 +;
#X obj 81 -670 + 18;
#X obj -40 -672 mod 12;
#X obj -40 -694 - 6;
#X obj 81 -695 * 12;
#X obj 26 -765 t b f;
#X obj 419 -673 a.rand pan;
#X obj 282 -671 a.rmm Harm;
#X obj 351 -671 a.rmm Q;
#X obj 175 -694 a.rmm Fdb;
#X obj 26 -786 a.rmm Octave;
#X connect 0 0 25 0;
#X connect 1 0 0 1;
#X connect 1 0 28 0;
#X connect 2 0 3 0;
#X connect 3 0 40 0;
#X connect 4 0 9 0;
#X connect 4 0 17 0;
#X connect 4 0 18 0;
#X connect 5 0 4 1;
#X connect 6 0 28 2;
#X connect 6 1 31 0;
#X connect 7 0 27 0;
#X connect 8 0 2 0;
#X connect 8 1 7 0;
#X connect 9 0 10 0;
#X connect 10 0 34 0;
#X connect 12 0 15 0;
#X connect 13 1 7 1;
#X connect 14 1 6 0;
#X connect 15 0 39 0;
#X connect 15 1 58 0;
#X connect 15 2 57 0;
#X connect 15 3 55 0;
#X connect 15 4 56 0;
#X connect 15 5 54 0;
#X connect 16 0 17 1;
#X connect 17 0 37 0;
#X connect 18 0 38 0;
#X connect 19 0 18 1;
#X connect 20 0 19 0;
#X connect 21 0 20 0;
#X connect 22 0 23 0;
#X connect 23 0 1 1;
#X connect 24 0 14 0;
#X connect 27 0 28 1;
#X connect 28 0 4 0;
#X connect 29 0 5 0;
#X connect 30 0 29 0;
#X connect 31 0 32 0;
#X connect 32 0 30 0;
#X connect 33 0 8 0;
#X connect 34 0 42 0;
#X connect 34 0 43 1;
#X connect 35 0 36 0;
#X connect 36 0 43 0;
#X connect 39 0 0 0;
#X connect 40 0 1 0;
#X connect 41 0 11 0;
#X connect 42 0 26 0;
#X connect 43 0 41 0;
#X connect 44 0 45 1;
#X connect 45 0 33 0;
#X connect 46 0 47 0;
#X connect 47 0 51 0;
#X connect 48 0 45 0;
#X connect 49 0 48 1;
#X connect 50 0 48 0;
#X connect 51 0 50 0;
#X connect 52 0 49 0;
#X connect 53 0 46 0;
#X connect 53 1 52 0;
#X connect 54 0 21 0;
#X connect 54 0 16 0;
#X connect 55 0 13 0;
#X connect 56 0 24 0;
#X connect 57 0 22 0;
#X connect 58 0 53 0;
