#N canvas 72 29 601 680 10;
#X obj 211 43 pow;
#X msg 211 22 2 \$1;
#X obj 211 1 + 1;
#X obj 167 118 min;
#X obj 171 70 t b f;
#X obj 238 212 /;
#X msg 238 191 16 \$1;
#X obj 81 167 until;
#X obj 81 146 f 1;
#X obj 81 303 list-extend;
#X obj 30 347 list-find;
#X obj 81 262 * 0.25;
#X obj 81 240 * 8;
#X obj 81 282 + 1;
#X obj 81 213 zexy/urn;
#X obj 81 325 sort;
#X obj 211 119 t f f;
#X msg 89 189 clear;
#X obj 12 213 r sequence;
#X obj 110 -87 t b b b b;
#X obj 30 456 s \$0-trigger;
#X obj 30 391 f 0;
#X obj 60 390 + 1;
#X obj 30 369 t b;
#X obj 30 434 + 1;
#X text 75 412 same as number of voices;
#X obj 161 -64 a.rmm Events;
#X obj 211 -22 r Subdivision;
#X obj 161 95 f 8;
#X obj 313 -90 a.pulsegrain 1 \$0;
#X obj 110 -109 r bar;
#X obj 313 185 a.pulsegrain 12 \$0;
#X obj 313 160 a.pulsegrain 11 \$0;
#X obj 313 210 a.pulsegrain 13 \$0;
#X obj 313 235 a.pulsegrain 14 \$0;
#X obj 313 260 a.pulsegrain 15 \$0;
#X obj 313 285 a.pulsegrain 16 \$0;
#X obj 313 310 a.pulsegrain 17 \$0;
#X obj 313 335 a.pulsegrain 18 \$0;
#X obj 313 360 a.pulsegrain 19 \$0;
#X obj 313 385 a.pulsegrain 20 \$0;
#X obj 313 410 a.pulsegrain 21 \$0;
#X obj 313 435 a.pulsegrain 22 \$0;
#X obj 313 460 a.pulsegrain 23 \$0;
#X obj 313 485 a.pulsegrain 24 \$0;
#X obj 313 511 a.pulsegrain 25 \$0;
#X obj 313 135 a.pulsegrain 10 \$0;
#X obj 313 -64 a.pulsegrain 2 \$0;
#X obj 313 -40 a.pulsegrain 3 \$0;
#X obj 313 -15 a.pulsegrain 4 \$0;
#X obj 311 10 a.pulsegrain 5 \$0;
#X obj 313 35 a.pulsegrain 6 \$0;
#X obj 313 60 a.pulsegrain 7 \$0;
#X obj 313 85 a.pulsegrain 8 \$0;
#X obj 313 110 a.pulsegrain 9 \$0;
#X obj 433 235 a.pulsegrain 39 \$0;
#X obj 433 210 a.pulsegrain 38 \$0;
#X obj 433 185 a.pulsegrain 37 \$0;
#X obj 433 160 a.pulsegrain 36 \$0;
#X obj 433 135 a.pulsegrain 35 \$0;
#X obj 433 110 a.pulsegrain 34 \$0;
#X obj 433 85 a.pulsegrain 33 \$0;
#X obj 433 60 a.pulsegrain 32 \$0;
#X obj 433 35 a.pulsegrain 31 \$0;
#X obj 431 10 a.pulsegrain 30 \$0;
#X obj 433 -15 a.pulsegrain 29 \$0;
#X obj 433 -40 a.pulsegrain 28 \$0;
#X obj 433 -64 a.pulsegrain 27 \$0;
#X obj 433 -90 a.pulsegrain 26 \$0;
#X obj 30 413 mod 40;
#X obj 433 260 a.pulsegrain 40 \$0;
#X connect 0 0 4 0;
#X connect 0 0 16 0;
#X connect 1 0 0 0;
#X connect 2 0 1 0;
#X connect 3 0 8 1;
#X connect 4 0 28 0;
#X connect 4 1 3 1;
#X connect 5 0 12 1;
#X connect 6 0 5 0;
#X connect 7 0 14 0;
#X connect 8 0 7 0;
#X connect 9 0 15 0;
#X connect 10 0 23 0;
#X connect 11 0 13 0;
#X connect 12 0 11 0;
#X connect 13 0 9 0;
#X connect 14 0 12 0;
#X connect 15 0 10 1;
#X connect 16 0 14 1;
#X connect 16 1 6 0;
#X connect 17 0 14 0;
#X connect 18 0 10 0;
#X connect 19 0 8 0;
#X connect 19 1 17 0;
#X connect 19 2 9 1;
#X connect 19 3 26 0;
#X connect 21 0 22 0;
#X connect 21 0 69 0;
#X connect 22 0 21 1;
#X connect 23 0 21 0;
#X connect 24 0 20 0;
#X connect 26 0 28 0;
#X connect 27 0 2 0;
#X connect 28 0 3 0;
#X connect 30 0 19 0;
#X connect 69 0 24 0;
